<svg width="36" height="36" viewBox="0 0 36 36" fill="none" xmlns="http://www.w3.org/2000/svg">
<path d="M13.5 21C15.5715 21 17.4465 20.16 18.804 18.8025C20.16 17.4465 21 15.5715 21 13.5C21 11.4285 20.16 9.5535 18.804 8.1975C17.4465 6.84 15.5715 6 13.5 6C11.4285 6 9.5535 6.84 8.196 8.1975C6.84 9.5535 6 11.4285 6 13.5C6 15.5715 6.84 17.4465 8.196 18.8025C8.89172 19.5002 9.71845 20.0535 10.6287 20.4306C11.5389 20.8077 12.5147 21.0012 13.5 21ZM13.5 31.5C18.777 31.5 22.5 30 22.5 28.5C22.5 25.5 18.969 22.5 13.5 22.5C7.875 22.5 4.5 25.5 4.5 28.5C4.5 30 7.875 31.5 13.5 31.5ZM31.5 18H28.5V15C28.5 14.6022 28.342 14.2206 28.0607 13.9393C27.7794 13.658 27.3978 13.5 27 13.5C26.6022 13.5 26.2206 13.658 25.9393 13.9393C25.658 14.2206 25.5 14.6022 25.5 15V18H22.5C22.1022 18 21.7206 18.158 21.4393 18.4393C21.158 18.7206 21 19.1022 21 19.5C21 19.8978 21.158 20.2794 21.4393 20.5607C21.7206 20.842 22.1022 21 22.5 21H25.5V24C25.5 24.3978 25.658 24.7794 25.9393 25.0607C26.2206 25.342 26.6022 25.5 27 25.5C27.3978 25.5 27.7794 25.342 28.0607 25.0607C28.342 24.7794 28.5 24.3978 28.5 24V21H31.5C31.8978 21 32.2794 20.842 32.5607 20.5607C32.842 20.2794 33 19.8978 33 19.5C33 19.1022 32.842 18.7206 32.5607 18.4393C32.2794 18.158 31.8978 18 31.5 18Z" fill="#F0F0F0"/>
</svg>
