<svg width="36" height="36" viewBox="0 0 36 36" fill="none" xmlns="http://www.w3.org/2000/svg">
<path fill-rule="evenodd" clip-rule="evenodd" d="M6.6 13.5C6.6 9.68819 9.68553 6.59998 13.5 6.59998C17.3145 6.59998 20.4 9.68819 20.4 13.5C20.4 17.3118 17.3145 20.4 13.5 20.4C9.68553 20.4 6.6 17.3118 6.6 13.5ZM18.6 13.5C18.6 10.6876 16.3124 8.39998 13.5 8.39998C10.6876 8.39998 8.4 10.6876 8.4 13.5C8.4 16.3123 10.6876 18.6 13.5 18.6C16.3124 18.6 18.6 16.3123 18.6 13.5Z" fill="#F0F0F0"/>
<path fill-rule="evenodd" clip-rule="evenodd" d="M5.09985 29.1C5.09985 26.594 8.01608 23.1 13.5 23.1C16.1276 23.1 18.2507 23.8208 19.7009 24.8623C21.1573 25.9083 21.8999 27.8446 21.8999 29.1C21.8999 29.2139 21.826 29.4355 21.4567 29.7364C21.0978 30.0288 20.5371 30.3286 19.7787 30.5968C18.2674 31.1313 16.088 31.5 13.4999 31.5C10.7334 31.5 8.55745 31.1302 7.09552 30.5986C6.3623 30.332 5.83827 30.0353 5.50879 29.7488C5.17585 29.4593 5.09985 29.2354 5.09985 29.1ZM19.1156 28.9261C19.2955 28.8649 19.4516 28.7514 19.5729 28.6051L19.6184 28.5503C19.9111 28.1974 19.9293 27.6914 19.6625 27.3185C18.7962 26.1071 16.6656 24.9 13.5 24.9C10.3284 24.9 8.10968 26.0519 7.26809 27.3628C7.03064 27.7327 7.05439 28.2126 7.3272 28.5572L7.36708 28.6076C7.49089 28.764 7.65337 28.8859 7.84214 28.9504C8.90185 29.3124 10.7329 29.7 13.4999 29.7C16.0654 29.7 17.9692 29.3157 19.1156 28.9261Z" fill="#F0F0F0"/>
<path d="M31.5 21H28.5V24C28.5 24.3978 28.342 24.7794 28.0607 25.0607C27.7794 25.342 27.3978 25.5 27 25.5C26.6022 25.5 26.2206 25.342 25.9393 25.0607C25.658 24.7794 25.5 24.3978 25.5 24V21H22.5C22.1022 21 21.7206 20.842 21.4393 20.5607C21.158 20.2794 21 19.8978 21 19.5C21 19.1022 21.158 18.7206 21.4393 18.4393C21.7206 18.158 22.1022 18 22.5 18H25.5V15C25.5 14.6022 25.658 14.2206 25.9393 13.9393C26.2206 13.658 26.6022 13.5 27 13.5C27.3978 13.5 27.7794 13.658 28.0607 13.9393C28.342 14.2206 28.5 14.6022 28.5 15V18H31.5C31.8978 18 32.2794 18.158 32.5607 18.4393C32.842 18.7206 33 19.1022 33 19.5C33 19.8978 32.842 20.2794 32.5607 20.5607C32.2794 20.842 31.8978 21 31.5 21Z" fill="#F0F0F0"/>
</svg>
