<svg width="48" height="48" viewBox="0 0 48 48" fill="none" xmlns="http://www.w3.org/2000/svg">
<path d="M37.9998 22H15.6598L25.4198 12.24C26.1999 11.46 26.1999 10.18 25.4198 9.40001C25.2348 9.2146 25.015 9.06751 24.7731 8.96715C24.5312 8.86678 24.2718 8.81512 24.0098 8.81512C23.7479 8.81512 23.4885 8.86678 23.2466 8.96715C23.0047 9.06751 22.7849 9.2146 22.5998 9.40001L9.41985 22.58C9.23444 22.765 9.08735 22.9848 8.98698 23.2268C8.88662 23.4687 8.83496 23.7281 8.83496 23.99C8.83496 24.2519 8.88662 24.5113 8.98698 24.7533C9.08735 24.9952 9.23444 25.215 9.41985 25.4L22.5998 38.58C22.785 38.7652 23.0048 38.9121 23.2468 39.0123C23.4887 39.1125 23.748 39.1641 24.0098 39.1641C24.2717 39.1641 24.531 39.1125 24.7729 39.0123C25.0149 38.9121 25.2347 38.7652 25.4198 38.58C25.605 38.3948 25.7519 38.175 25.8521 37.9331C25.9523 37.6912 26.0039 37.4319 26.0039 37.17C26.0039 36.9081 25.9523 36.6489 25.8521 36.4069C25.7519 36.165 25.605 35.9452 25.4198 35.76L15.6598 26H37.9998C39.0998 26 39.9998 25.1 39.9998 24C39.9998 22.9 39.0998 22 37.9998 22Z" fill="black"/>
</svg>
