<svg width="48" height="48" viewBox="0 0 48 48" fill="none" xmlns="http://www.w3.org/2000/svg">
<path d="M2 28C2 29.0609 2.42143 30.0783 3.17157 30.8284C3.92172 31.5786 4.93913 32 6 32L18.64 32L16.72 41.14C16.68 41.34 16.66 41.56 16.66 41.78C16.66 42.6 17 43.36 17.54 43.9L19.66 46L32.82 32.84C33.56 32.1 34 31.1 34 30V10C34 8.93913 33.5786 7.92172 32.8284 7.17157C32.0783 6.42143 31.0609 6 30 6L12 6C10.34 6 8.92 7 8.32 8.44L2.28 22.54C2.1 23 2 23.48 2 24V28ZM46 6H38L38 30H46L46 6Z" fill="#333333"/>
</svg>
