<svg width="48" height="48" viewBox="0 0 48 48" fill="none" xmlns="http://www.w3.org/2000/svg">
<path d="M46 20C46 18.9391 45.5786 17.9217 44.8284 17.1716C44.0783 16.4214 43.0609 16 42 16H29.36L31.28 6.86C31.32 6.66 31.34 6.44 31.34 6.22C31.34 5.4 31 4.64 30.46 4.1L28.34 2L15.18 15.16C14.44 15.9 14 16.9 14 18V38C14 39.0609 14.4214 40.0783 15.1716 40.8284C15.9217 41.5786 16.9391 42 18 42H36C37.66 42 39.08 41 39.68 39.56L45.72 25.46C45.9 25 46 24.52 46 24V20ZM2 42H10V18H2V42Z" fill="#5D23AD"/>
</svg>
