<svg width="36" height="36" viewBox="0 0 36 36" fill="none" xmlns="http://www.w3.org/2000/svg">
<path d="M24 6H28.5C29.2956 6 30.0587 6.31607 30.6213 6.87868C31.1839 7.44129 31.5 8.20435 31.5 9V10.5M24 30H28.5C29.2956 30 30.0587 29.6839 30.6213 29.1213C31.1839 28.5587 31.5 27.7956 31.5 27V25.5M13.5015 18H13.5M24 18H31.5M31.5 18L28.5 15M31.5 18L28.5 21M6.6375 29.142L15.6375 31.842C16.0855 31.9765 16.5588 32.0043 17.0195 31.9233C17.4802 31.8423 17.9156 31.6547 18.2909 31.3755C18.6661 31.0962 18.9709 30.7331 19.1809 30.3151C19.3908 29.8971 19.5001 29.4358 19.5 28.968V7.032C19.5001 6.56423 19.3908 6.10291 19.1809 5.6849C18.9709 5.26688 18.6661 4.90376 18.2909 4.62452C17.9156 4.34528 17.4802 4.15767 17.0195 4.07666C16.5588 3.99566 16.0855 4.02352 15.6375 4.158L6.6375 6.858C6.01953 7.0435 5.47783 7.42328 5.09278 7.941C4.70773 8.45873 4.49986 9.08679 4.5 9.732V26.268C4.49986 26.9132 4.70773 27.5413 5.09278 28.059C5.47783 28.5767 6.01953 28.9565 6.6375 29.142V29.142Z" stroke="#F0F0F0" stroke-width="3" stroke-linecap="round" stroke-linejoin="round"/>
</svg>
