<svg width="72" height="72" viewBox="0 0 72 72" fill="none" xmlns="http://www.w3.org/2000/svg">
<path d="M36 69.3334C54.41 69.3334 69.3334 54.4101 69.3334 36.0001C69.3334 17.5901 54.41 2.66675 36 2.66675C17.59 2.66675 2.66669 17.5901 2.66669 36.0001C2.66669 54.4101 17.59 69.3334 36 69.3334Z" fill="#EFEAF7" stroke="#EFEAF7" stroke-width="4" stroke-linejoin="round"/>
<path d="M47.6667 47.6668C47.6667 47.6668 44.3334 54.3335 36 54.3335C27.6667 54.3335 24.3334 47.6668 24.3334 47.6668M31 31.0002C31 31.0002 29.3334 24.3335 24.3334 24.3335C19.3334 24.3335 17.6667 31.0002 17.6667 31.0002M54.3334 31.0002C54.3334 31.0002 52.6667 24.3335 47.6667 24.3335C42.6667 24.3335 41 31.0002 41 31.0002" stroke="#7D4FBD" stroke-width="4" stroke-linecap="round" stroke-linejoin="round"/>
</svg>
