<svg width="36" height="36" viewBox="0 0 36 36" fill="none" xmlns="http://www.w3.org/2000/svg">
<g clip-path="url(#clip0_265_177)">
<path fill-rule="evenodd" clip-rule="evenodd" d="M3 9C3 7.80653 3.47411 6.66193 4.31802 5.81802C5.16193 4.97411 6.30653 4.5 7.5 4.5H28.5C29.6935 4.5 30.8381 4.97411 31.682 5.81802C32.5259 6.66193 33 7.80653 33 9V24C33 25.1935 32.5259 26.3381 31.682 27.182C30.8381 28.0259 29.6935 28.5 28.5 28.5H16.9995L12 32.25C10.764 33.177 9 32.295 9 30.75V28.5H7.5C6.30653 28.5 5.16193 28.0259 4.31802 27.182C3.47411 26.3381 3 25.1935 3 24V9Z" fill="#F0F0F0"/>
</g>
<defs>
<clipPath id="clip0_265_177">
<rect width="36" height="36" fill="white"/>
</clipPath>
</defs>
</svg>
