<svg width="36" height="36" viewBox="0 0 36 36" fill="none" xmlns="http://www.w3.org/2000/svg">
<g clip-path="url(#clip0_374_346)">
<path fill-rule="evenodd" clip-rule="evenodd" d="M3 9C3 7.80653 3.47411 6.66193 4.31802 5.81802C5.16193 4.97411 6.30653 4.5 7.5 4.5H28.5C29.6935 4.5 30.8381 4.97411 31.682 5.81802C32.5259 6.66193 33 7.80653 33 9V24C33 25.1935 32.5259 26.3381 31.682 27.182C30.8381 28.0259 29.6935 28.5 28.5 28.5H16.9995L12 32.25C10.764 33.177 9 32.295 9 30.75V28.5H7.5C6.30653 28.5 5.16193 28.0259 4.31802 27.182C3.47411 26.3381 3 25.1935 3 24V9ZM7.5 7.5C7.10218 7.5 6.72064 7.65804 6.43934 7.93934C6.15804 8.22064 6 8.60218 6 9V24C6 24.3978 6.15804 24.7794 6.43934 25.0607C6.72064 25.342 7.10218 25.5 7.5 25.5H9.75C10.3467 25.5 10.919 25.7371 11.341 26.159C11.7629 26.581 12 27.1533 12 27.75V28.5L15.1995 26.1C15.7188 25.7105 16.3504 25.5 16.9995 25.5H28.5C28.8978 25.5 29.2794 25.342 29.5607 25.0607C29.842 24.7794 30 24.3978 30 24V9C30 8.60218 29.842 8.22064 29.5607 7.93934C29.2794 7.65804 28.8978 7.5 28.5 7.5H7.5Z" fill="#F0F0F0"/>
</g>
<defs>
<clipPath id="clip0_374_346">
<rect width="36" height="36" fill="white"/>
</clipPath>
</defs>
</svg>
