<svg width="36" height="36" viewBox="0 0 36 36" fill="none" xmlns="http://www.w3.org/2000/svg">
<g clip-path="url(#clip0_82_457)">
<path d="M34 16.78C34.3717 16.5032 34.6473 16.1169 34.7884 15.6754C34.9295 15.234 34.9288 14.7594 34.7866 14.3183C34.6443 13.8773 34.3676 13.4917 33.9952 13.2159C33.6228 12.94 33.1734 12.7876 32.71 12.78L23.71 12.44C23.6657 12.437 23.6233 12.4212 23.5878 12.3946C23.5524 12.368 23.5253 12.3317 23.51 12.29L20.4 3.89002C20.2437 3.46266 19.9599 3.09364 19.587 2.83292C19.2141 2.5722 18.77 2.43237 18.315 2.43237C17.86 2.43237 17.4159 2.5722 17.043 2.83292C16.6701 3.09364 16.3863 3.46266 16.23 3.89002L13.13 12.32C13.1147 12.3617 13.0876 12.398 13.0522 12.4246C13.0167 12.4512 12.9742 12.467 12.93 12.47L3.92999 12.81C3.4666 12.8176 3.01719 12.97 2.64479 13.2459C2.27238 13.5217 1.99565 13.9073 1.8534 14.3483C1.71115 14.7894 1.71052 15.264 1.85158 15.7054C1.99264 16.1469 2.26833 16.5332 2.63999 16.81L9.69999 22.36C9.73533 22.3878 9.76174 22.4254 9.77595 22.468C9.79017 22.5107 9.79158 22.5566 9.77999 22.6L7.34999 31.21C7.22407 31.6485 7.23627 32.1151 7.38493 32.5463C7.53359 32.9776 7.8115 33.3526 8.18084 33.6203C8.55019 33.888 8.99304 34.0355 9.44915 34.0426C9.90526 34.0497 10.3525 33.9161 10.73 33.66L18.19 28.66C18.2267 28.6347 18.2703 28.6211 18.315 28.6211C18.3596 28.6211 18.4032 28.6347 18.44 28.66L25.9 33.66C26.2724 33.9249 26.718 34.0672 27.175 34.0672C27.632 34.0672 28.0776 33.9249 28.45 33.66C28.8194 33.3948 29.0976 33.0217 29.2462 32.5919C29.3949 32.1621 29.4067 31.6968 29.28 31.26L26.83 22.62C26.817 22.5767 26.8177 22.5303 26.832 22.4874C26.8464 22.4444 26.8736 22.4069 26.91 22.38L34 16.78ZM24.9 23.11L27.35 31.75C27.3699 31.7962 27.3735 31.8478 27.36 31.8963C27.3465 31.9447 27.3168 31.9871 27.2759 32.0163C27.235 32.0455 27.1853 32.0599 27.1351 32.0569C27.0849 32.0539 27.0372 32.0339 27 32L19.54 27C19.174 26.7522 18.742 26.6198 18.3 26.62V4.44002C18.3471 4.4362 18.394 4.44917 18.4324 4.47662C18.4709 4.50408 18.4983 4.54425 18.51 4.59002L21.62 13C21.7706 13.4145 22.0413 13.7747 22.3975 14.0348C22.7537 14.2948 23.1793 14.4428 23.62 14.46L32.62 14.8C32.6671 14.7993 32.7131 14.8136 32.7514 14.841C32.7897 14.8683 32.8182 14.9072 32.8328 14.952C32.8473 14.9968 32.8471 15.045 32.8322 15.0896C32.8173 15.1343 32.7885 15.173 32.75 15.2L25.69 20.75C25.3365 21.0186 25.0721 21.3873 24.9312 21.8083C24.7903 22.2292 24.7794 22.6828 24.9 23.11Z" fill="#5D23AD"/>
</g>
<defs>
<clipPath id="clip0_82_457">
<rect width="36" height="36" fill="white"/>
</clipPath>
</defs>
</svg>
