<svg width="18" height="18" viewBox="0 0 18 18" fill="none" xmlns="http://www.w3.org/2000/svg">
<g clip-path="url(#clip0_82_479)">
<path d="M16.1538 8.43693C16.3253 8.30915 16.4526 8.13088 16.5177 7.92712C16.5828 7.72337 16.5825 7.50435 16.5168 7.30077C16.4512 7.09719 16.3235 6.91927 16.1516 6.79194C15.9797 6.66461 15.7723 6.59427 15.5584 6.59078L11.4046 6.43386C11.3841 6.43245 11.3646 6.42516 11.3482 6.41288C11.3318 6.4006 11.3193 6.38384 11.3123 6.36463L9.87688 2.4877C9.80476 2.29046 9.67377 2.12014 9.50165 1.99981C9.32953 1.87948 9.12458 1.81494 8.91457 1.81494C8.70456 1.81494 8.49961 1.87948 8.32749 1.99981C8.15537 2.12014 8.02438 2.29046 7.95226 2.4877L6.52149 6.37847C6.51442 6.39768 6.50194 6.41444 6.48557 6.42672C6.46919 6.43901 6.44961 6.44629 6.42919 6.4477L2.27534 6.60463C2.06147 6.60812 1.85405 6.67846 1.68217 6.80579C1.51029 6.93311 1.38257 7.11104 1.31691 7.31462C1.25126 7.51819 1.25096 7.73722 1.31607 7.94097C1.38118 8.14472 1.50842 8.32299 1.67995 8.45078L4.93842 11.0123C4.95472 11.0252 4.96691 11.0425 4.97347 11.0622C4.98004 11.0819 4.98069 11.103 4.97534 11.1231L3.8538 15.0969C3.79568 15.2993 3.80131 15.5146 3.86993 15.7137C3.93854 15.9127 4.0668 16.0858 4.23727 16.2094C4.40774 16.3329 4.61213 16.401 4.82264 16.4043C5.03315 16.4075 5.23957 16.3459 5.4138 16.2277L8.85688 13.92C8.87384 13.9083 8.89396 13.902 8.91457 13.902C8.93518 13.902 8.9553 13.9083 8.97226 13.92L12.4153 16.2277C12.5872 16.3499 12.7929 16.4156 13.0038 16.4156C13.2147 16.4156 13.4204 16.3499 13.5923 16.2277C13.7628 16.1053 13.8912 15.9331 13.9598 15.7347C14.0284 15.5363 14.0338 15.3216 13.9753 15.12L12.8446 11.1323C12.8386 11.1123 12.8389 11.0909 12.8455 11.0711C12.8521 11.0513 12.8647 11.034 12.8815 11.0215L16.1538 8.43693Z" fill="#090411"/>
</g>
<defs>
<clipPath id="clip0_82_479">
<rect width="16.6154" height="16.6154" fill="white" transform="translate(0.461548 0.692383)"/>
</clipPath>
</defs>
</svg>
