<svg width="48" height="49" viewBox="0 0 48 49" fill="none" xmlns="http://www.w3.org/2000/svg">
<path d="M24.0001 5.375C20.6651 5.37554 17.3883 6.24813 14.4947 7.90617C11.6012 9.56421 9.19147 11.9501 7.50473 14.827C5.81799 17.7039 4.91286 20.9719 4.87915 24.3067C4.84544 27.6414 5.68432 30.9271 7.31256 33.8375L5.66256 39.5938C5.52782 40.0443 5.51748 40.5228 5.63263 40.9787C5.74778 41.4347 5.98413 41.8509 6.31663 42.1834C6.64913 42.5159 7.0654 42.7523 7.52131 42.8674C7.97722 42.9826 8.45579 42.9722 8.90631 42.8375L14.6626 41.1875C17.2131 42.6155 20.0571 43.4399 22.976 43.5973C25.8948 43.7546 28.8109 43.2408 31.5003 42.0953C34.1896 40.9498 36.5805 39.2031 38.4895 36.9894C40.3984 34.7756 41.7744 32.1538 42.5119 29.3252C43.2494 26.4966 43.3287 23.5367 42.7438 20.6727C42.1588 17.8087 40.9251 15.1169 39.1375 12.8041C37.3498 10.4913 35.0558 8.6191 32.4317 7.33123C29.8076 6.04336 26.9232 5.37415 24.0001 5.375ZM24.0001 41.375C20.9713 41.3741 17.9986 40.5581 15.3938 39.0125C15.2148 38.917 15.0155 38.8655 14.8126 38.8625C14.7111 38.8564 14.6094 38.8691 14.5126 38.9L8.28756 40.6813C8.2224 40.7013 8.15301 40.7032 8.08684 40.6868C8.02068 40.6704 7.96024 40.6362 7.91204 40.588C7.86383 40.5398 7.82968 40.4794 7.81325 40.4132C7.79682 40.347 7.79874 40.2777 7.81881 40.2125L9.60006 33.9875C9.64211 33.8407 9.65382 33.6868 9.63448 33.5353C9.61514 33.3838 9.56515 33.2378 9.48756 33.1062C7.58869 29.9036 6.80233 26.1629 7.25094 22.4667C7.69956 18.7706 9.35797 15.3266 11.9679 12.6712C14.5777 10.0158 17.9925 8.29806 21.6804 7.78561C25.3682 7.27315 29.122 7.99472 32.357 9.83792C35.592 11.6811 38.1266 14.5425 39.566 17.9762C41.0054 21.41 41.2687 25.2234 40.315 28.8225C39.3613 32.4215 37.2441 35.6041 34.2932 37.8745C31.3423 40.1449 27.7233 41.3756 24.0001 41.375ZM33.6563 27.65L29.8126 25.4563C29.408 25.228 28.9501 25.1113 28.4856 25.1178C28.0211 25.1244 27.5667 25.2541 27.1688 25.4938L24.7688 26.9375C23.4048 26.2117 22.2884 25.0953 21.5626 23.7313L23.0063 21.3313C23.2459 20.9333 23.3756 20.4789 23.3822 20.0144C23.3888 19.55 23.272 19.0921 23.0438 18.6875L20.8501 14.8438C20.6371 14.4748 20.3311 14.1681 19.9626 13.9543C19.5941 13.7405 19.1761 13.6269 18.7501 13.625C17.0625 13.625 15.4439 14.2941 14.2489 15.4856C13.0539 16.6771 12.38 18.2937 12.3751 19.9813C12.3726 22.1004 12.7879 24.1992 13.5971 26.1578C14.4064 28.1163 15.5937 29.8961 17.0913 31.3955C18.5889 32.8948 20.3674 34.0842 22.325 34.8958C24.2826 35.7073 26.3809 36.125 28.5001 36.125H28.5188C30.2063 36.12 31.823 35.4462 33.0145 34.2512C34.206 33.0562 34.8751 31.4375 34.8751 29.75C34.8731 29.324 34.7596 28.9059 34.5458 28.5375C34.3319 28.169 34.0253 27.863 33.6563 27.65ZM28.5188 33.875H28.5001C24.8185 33.87 21.2893 32.404 18.6878 29.799C16.0863 27.1939 14.6251 23.6629 14.6251 19.9813C14.63 18.8905 15.0668 17.8461 15.8398 17.0765C16.6129 16.307 17.6593 15.875 18.7501 15.875C18.8079 15.8797 18.8616 15.9066 18.9001 15.95L21.0938 19.7938C21.1239 19.8524 21.138 19.9179 21.1347 19.9838C21.1315 20.0496 21.1109 20.1134 21.0751 20.1688L19.3313 23.1125C19.2326 23.264 19.1739 23.4381 19.1608 23.6185C19.1477 23.7988 19.1805 23.9796 19.2563 24.1438C20.2814 26.4061 22.0939 28.2187 24.3563 29.2438C24.5205 29.3195 24.7012 29.3524 24.8816 29.3393C25.062 29.3261 25.236 29.2675 25.3876 29.1688L28.3313 27.425C28.3867 27.3892 28.4505 27.3686 28.5163 27.3653C28.5821 27.362 28.6477 27.3761 28.7063 27.4063L32.5501 29.6C32.5935 29.6385 32.6203 29.6922 32.6251 29.75C32.6251 30.8408 32.193 31.8872 31.4235 32.6602C30.654 33.4333 29.6096 33.87 28.5188 33.875Z" fill="#F0F0F0"/>
</svg>
